<?xml version="1.0" encoding="utf-8"?>
<!-- Generator: Adobe Illustrator 19.0.0, SVG Export Plug-In . SVG Version: 6.00 Build 0)  -->
<svg version="1.1" id="Layer_1" xmlns="http://www.w3.org/2000/svg" xmlns:xlink="http://www.w3.org/1999/xlink" x="0px" y="0px"
	 viewBox="0 0 612 792" style="enable-background:new 0 0 612 792;" xml:space="preserve">
<style type="text/css">
	.st0{fill:#FFFFFF;}
</style>
<path id="XMLID_26_" class="st0" d="M349.4,466.3H263c-6.5,0-11.7-4.9-11.7-11v-108c0-6.1,5.2-11,11.7-11h86.3
	c6.5,0,11.7,4.9,11.7,11v108C361.1,461.4,355.8,466.3,349.4,466.3z"/>
<path id="XMLID_21_" class="st0" d="M41.1,590.5c103.2-19.9,204.1-118.1,208.4-122.3c2.1-2.1,3.4-5.3,3.4-8.8V412v-22.2v-47.3
	c0-3.1-1-6.1-2.8-8.1C172.9,243.4,50.3,204.1,45.2,202.5c-3.7-1.1-7.4,0.9-9.3,5.2c-3.1,6.9-74.9,170.6-3.8,376.4
	c1.4,4,4.4,6.5,7.7,6.5C40.2,590.6,40.7,590.6,41.1,590.5z"/>
<path id="XMLID_18_" class="st0" d="M570.7,590.4c-103.2-19.9-204.1-118.1-208.4-122.3c-2.1-2.1-3.4-5.3-3.4-8.8v-47.5v-22.2v-47.3
	c0-3.1,1-6.1,2.8-8.1c77.1-90.9,199.7-130.2,204.9-131.9c3.7-1.1,7.4,0.9,9.3,5.2c3.1,6.9,74.9,170.6,3.8,376.4
	c-1.4,4-4.4,6.5-7.7,6.5C571.5,590.5,571.1,590.5,570.7,590.4z"/>
</svg>
