<?xml version="1.0" encoding="utf-8"?>
<!-- Generator: Adobe Illustrator 19.0.0, SVG Export Plug-In . SVG Version: 6.00 Build 0)  -->
<svg version="1.1" id="Layer_1" xmlns="http://www.w3.org/2000/svg" xmlns:xlink="http://www.w3.org/1999/xlink" x="0px" y="0px"
	 viewBox="-297 389 16 16" style="enable-background:new -297 389 16 16;" xml:space="preserve">
<style type="text/css">
	.st0{fill:#388624;}
</style>
<path class="st0" d="M-288.4,390c1.6,0.1,3.1,0.9,4.2,2c1.3,1.4,2,3.1,2,5.1c0,1.6-0.6,3.1-1.6,4.4c-1,1.2-2.4,2.1-4,2.4
	c-1.6,0.3-3.2,0.1-4.6-0.7c-1.4-0.8-2.5-2-3.1-3.5c-0.6-1.5-0.7-3.2-0.2-4.7c0.5-1.6,1.4-2.9,2.8-3.8
	C-291.6,390.3-290,389.9-288.4,390z M-287.9,402.9c1.3-0.3,2.5-1,3.4-2.1c0.8-1.1,1.3-2.4,1.2-3.8c0-1.6-0.6-3.2-1.7-4.3
	c-1-1-2.2-1.6-3.6-1.7c-1.3-0.1-2.7,0.2-3.8,1c-1.1,0.8-1.9,1.9-2.3,3.3c-0.4,1.3-0.4,2.7,0.2,4c0.6,1.3,1.5,2.3,2.7,3
	C-290.6,403-289.2,403.2-287.9,402.9z M-287.6,396.7l2.4-2.5l0.7,0.7l-2.4,2.5l-0.7,0.7l-2.4,2.5l-0.7-0.7l0.7-0.8l1.7-1.7
	L-287.6,396.7z M-289.3,399.9l-0.7,0.8l0,0l-0.7-0.7l-2.5-2.4l0.7-0.7l0.8,0.7l1.7,1.7"/>
</svg>
