<?xml version="1.0" encoding="utf-8"?>
<!-- Generator: Adobe Illustrator 19.0.0, SVG Export Plug-In . SVG Version: 6.00 Build 0)  -->
<svg version="1.1" id="Layer_1" xmlns="http://www.w3.org/2000/svg" xmlns:xlink="http://www.w3.org/1999/xlink" x="0px" y="0px"
	 viewBox="-297 389 16 16" style="enable-background:new -297 389 16 16;" xml:space="preserve">
<style type="text/css">
	.st0{fill:#E51300;}
	.st1{fill:#FFFFFF;}
</style>
<g>
	<path class="st0" d="M-286.4,393.9c-0.2-0.1-0.3-0.2-0.5-0.4c-0.3-0.2-0.7-0.3-1-0.4c-0.4-0.1-0.7-0.1-1.1-0.1
		c-0.4,0-0.7,0-1.1,0.1c-0.4,0.1-0.7,0.2-1,0.4c-0.1,0-0.3,0.1-0.4,0.3l2.6,2.6L-286.4,393.9z"/>
	<path class="st0" d="M-291.4,400.3c0.1,0.1,0.2,0.1,0.3,0.2c0.3,0.2,0.7,0.3,1,0.4c0.4,0.1,0.7,0.1,1.1,0.1c0.4,0,0.8,0,1.1-0.1
		c0.4-0.1,0.7-0.2,1-0.4c0.1,0,0.3-0.1,0.4-0.3l-2.4-2.4L-291.4,400.3z"/>
	<path class="st0" d="M-285.1,398.1c0.1-0.4,0.1-0.7,0.1-1.1c0-0.4,0-0.8-0.1-1.1c-0.1-0.4-0.2-0.7-0.4-1c0-0.1-0.1-0.2-0.2-0.3
		l-2.5,2.5l2.4,2.4c0.1-0.1,0.2-0.3,0.3-0.4C-285.3,398.8-285.2,398.4-285.1,398.1z"/>
	<path class="st0" d="M-292.2,394.5c-0.1,0.1-0.2,0.3-0.3,0.4c-0.2,0.3-0.3,0.7-0.4,1c-0.1,0.4-0.1,0.7-0.1,1.1c0,0.4,0,0.8,0.1,1.1
		c0.1,0.4,0.2,0.7,0.4,1c0.1,0.2,0.2,0.4,0.3,0.5l2.5-2.5L-292.2,394.5z"/>
	<path class="st1" d="M-292.2,394.5c0.1-0.1,0.2-0.3,0.3-0.4c0.1-0.1,0.2-0.2,0.4-0.3"/>
	<path class="st1" d="M-285.8,399.5c-0.1,0.1-0.2,0.3-0.3,0.4c-0.1,0.1-0.2,0.2-0.4,0.3"/>
	<path class="st1" d="M-288.9,396.4l-2.6-2.6c-0.1,0.1-0.3,0.2-0.4,0.3c-0.1,0.1-0.2,0.2-0.3,0.4l2.6,2.6L-288.9,396.4z"/>
	<path class="st1" d="M-288.9,397.8l2.4,2.4c0.1-0.1,0.3-0.2,0.4-0.3c0.1-0.1,0.2-0.2,0.3-0.4l-2.4-2.4L-288.9,397.8z"/>
	<path class="st1" d="M-286.4,393.9c0.1,0.1,0.2,0.2,0.3,0.2c0.1,0.1,0.3,0.3,0.4,0.5"/>
	<path class="st1" d="M-291.4,400.3c-0.2-0.1-0.4-0.3-0.5-0.4c-0.1-0.1-0.2-0.2-0.3-0.3"/>
	<path class="st1" d="M-289.6,397.1l-2.5,2.5c0.1,0.1,0.2,0.2,0.3,0.3c0.1,0.1,0.3,0.3,0.5,0.4l2.5-2.5L-289.6,397.1z"/>
	<path class="st1" d="M-288.2,397.1l2.5-2.5c-0.1-0.2-0.3-0.3-0.4-0.5c-0.1-0.1-0.2-0.2-0.3-0.2l-2.5,2.5L-288.2,397.1z"/>
	
		<rect x="-289.4" y="396.6" transform="matrix(-0.7071 -0.7071 0.7071 -0.7071 -773.9815 473.5939)" class="st1" width="1" height="1"/>
</g>
</svg>
