<?xml version="1.0" encoding="utf-8"?>
<!-- Generator: Adobe Illustrator 19.0.0, SVG Export Plug-In . SVG Version: 6.00 Build 0)  -->
<svg version="1.1" id="Layer_1" xmlns="http://www.w3.org/2000/svg" xmlns:xlink="http://www.w3.org/1999/xlink" x="0px" y="0px"
	 viewBox="-297 389 16 16" style="enable-background:new -297 389 16 16;" xml:space="preserve">
<style type="text/css">
	.st0{fill:#7F7F7F;}
</style>
<path class="st0" d="M-285.1,395.9c-0.1-0.4-0.2-0.7-0.4-1c-0.1-0.3-0.4-0.6-0.6-0.8s-0.5-0.4-0.8-0.6s-0.7-0.3-1-0.4
	c-0.4-0.1-0.7-0.1-1.1-0.1c-0.4,0-0.7,0-1.1,0.1c-0.4,0.1-0.7,0.2-1,0.4c-0.3,0.1-0.6,0.4-0.8,0.6s-0.4,0.5-0.6,0.8
	c-0.2,0.3-0.3,0.7-0.4,1c-0.1,0.4-0.1,0.7-0.1,1.1c0,0.4,0,0.8,0.1,1.1c0.1,0.4,0.2,0.7,0.4,1c0.1,0.3,0.4,0.6,0.6,0.8
	c0.2,0.2,0.5,0.4,0.8,0.6c0.3,0.2,0.7,0.3,1,0.4c0.4,0.1,0.7,0.1,1.1,0.1c0.4,0,0.8,0,1.1-0.1c0.4-0.1,0.7-0.2,1-0.4
	c0.3-0.1,0.6-0.4,0.8-0.6c0.2-0.2,0.4-0.5,0.6-0.8s0.3-0.7,0.4-1c0.1-0.4,0.1-0.7,0.1-1.1C-285,396.6-285,396.2-285.1,395.9z
	 M-285.8,398h-6.5v-2h6.5V398z"/>
</svg>
