<?xml version="1.0" encoding="utf-8"?>
<!-- Generator: Adobe Illustrator 19.0.0, SVG Export Plug-In . SVG Version: 6.00 Build 0)  -->
<svg version="1.1" id="Layer_1" xmlns="http://www.w3.org/2000/svg" xmlns:xlink="http://www.w3.org/1999/xlink" x="0px" y="0px"
	 viewBox="194 -104 1000 1000" style="enable-background:new 194 -104 1000 1000;" xml:space="preserve">
<style type="text/css">
	.st0{fill:#D23833;}
</style>
<path id="XMLID_26_" class="st0" d="M751.3,509H636.8c-8.6,0-15.5-6.2-15.5-13.8V359.9c0-7.6,7-13.8,15.5-13.8h114.5
	c8.6,0,15.5,6.2,15.5,13.8v135.4C766.8,502.9,759.8,509,751.3,509z"/>
<path id="XMLID_21_" class="st0" d="M258.3,664.7c154.8-25,306.3-148.1,312.7-153.3c3.2-2.6,5-6.7,5-11v-59.5v-27.8v-59.3
	c0-3.9-1.5-7.6-4.2-10.2c-115.8-114-299.7-163.3-307.4-165.3c-5.5-1.4-11.2,1.2-14,6.5c-4.6,8.6-112.4,213.8-5.6,472
	c2.1,5,6.7,8.2,11.6,8.2C257,664.9,257.6,664.8,258.3,664.7z"/>
<path id="XMLID_18_" class="st0" d="M1128.6,664.6c-155.2-25-307.1-148.1-313.5-153.3c-3.2-2.6-5.1-6.7-5.1-11v-59.5V413v-59.3
	c0-3.9,1.5-7.6,4.2-10.2c116.1-114,300.4-163.3,308.2-165.3c5.5-1.4,11.2,1.2,14.1,6.5c4.7,8.6,112.7,213.8,5.6,472
	c-2.1,5-6.7,8.2-11.7,8.2C1129.8,664.8,1129.2,664.7,1128.6,664.6z"/>
</svg>
