<?xml version="1.0" encoding="utf-8"?>
<!-- Generator: Adobe Illustrator 19.0.0, SVG Export Plug-In . SVG Version: 6.00 Build 0)  -->
<svg version="1.1" id="Layer_1" xmlns="http://www.w3.org/2000/svg" xmlns:xlink="http://www.w3.org/1999/xlink" x="0px" y="0px"
	 viewBox="194 -104 1000 1000" style="enable-background:new 194 -104 1000 1000;" xml:space="preserve">
<style type="text/css">
	.st0{fill:#D23833;}
	.st1{fill:none;stroke:#D23833;stroke-width:75;stroke-miterlimit:10;}
</style>
<path id="XMLID_26_" class="st0" d="M748.1,481.1H633.6c-8.6,0-15.5-6.2-15.5-13.8V332c0-7.6,7-13.8,15.5-13.8h114.5
	c8.6,0,15.5,6.2,15.5,13.8v135.4C763.6,475,756.6,481.1,748.1,481.1z"/>
<g>
	<path class="st0" d="M276,630.6c-31.9,16.2-58,0.1-58-35.6V185c0-35.8,25.5-50.7,56.7-33.2L497,276.2c31.2,17.5,56.7,61,56.7,96.8
		v52c0,35.8-26.1,78.2-58,94.4L276,630.6z"/>
	<path class="st1" d="M276,630.6c-31.9,16.2-58,0.1-58-35.6V185c0-35.8,25.5-50.7,56.7-33.2L497,276.2c31.2,17.5,56.7,61,56.7,96.8
		v52c0,35.8-26.1,78.2-58,94.4L276,630.6z"/>
</g>
<g>
	<path class="st0" d="M1112.5,627.6c31.9,16.2,58,0.1,58-35.6V182c0-35.8-25.5-50.7-56.7-33.2L891.6,273.2
		c-31.2,17.5-56.7,61-56.7,96.8v52c0,35.8,26.1,78.2,58,94.4L1112.5,627.6z"/>
	<path class="st1" d="M1112.5,627.6c31.9,16.2,58,0.1,58-35.6V182c0-35.8-25.5-50.7-56.7-33.2L891.6,273.2
		c-31.2,17.5-56.7,61-56.7,96.8v52c0,35.8,26.1,78.2,58,94.4L1112.5,627.6z"/>
</g>
</svg>
