<?xml version="1.0" encoding="utf-8"?>
<!-- Generator: Adobe Illustrator 19.0.0, SVG Export Plug-In . SVG Version: 6.00 Build 0)  -->
<svg version="1.1" id="Layer_1" xmlns="http://www.w3.org/2000/svg" xmlns:xlink="http://www.w3.org/1999/xlink" x="0px" y="0px"
	 viewBox="194 -104 1000 1000" style="enable-background:new 194 -104 1000 1000;" xml:space="preserve">
<style type="text/css">
	.st0{fill:#FFFFFF;}
</style>
<g>
	<path class="st0" d="M1114-24H274c-38.7,0-70,31.3-70,70v700c0,38.7,31.3,70,70,70h840c38.7,0,70-31.3,70-70V46
		C1184,7.3,1152.7-24,1114-24z M1009,46c19.3,0,35,15.7,35,35s-15.7,35-35,35c-19.3,0-35-15.7-35-35S989.7,46,1009,46z M869,46
		c19.3,0,35,15.7,35,35s-15.7,35-35,35s-35-15.7-35-35S849.7,46,869,46z M729,46c19.3,0,35,15.7,35,35s-15.7,35-35,35
		s-35-15.7-35-35S709.7,46,729,46z M1114,711c0,19.3-15.7,35-35,35H309c-19.3,0-35-15.7-35-35V187.1h840V711z"/>
	<path class="st0" d="M424.3,665.8c13.7,13.7,35.8,13.7,49.5,0L648.5,491c6.9-6.9,10.3-15.9,10.3-24.9s-3.4-18-10.3-24.9
		L473.8,266.5c-13.7-13.7-35.8-13.7-49.5,0s-13.7,35.8,0,49.5l150.1,150.1L424.3,616.3C410.6,629.9,410.6,652.1,424.3,665.8z"/>
	<path class="st0" d="M624,641c0,19.3,15.7,35,35,35h280c19.3,0,35-15.7,35-35s-15.7-35-35-35H659C639.7,606,624,621.7,624,641z"/>
</g>
</svg>
