<?xml version="1.0" encoding="utf-8"?>
<!-- Svg Vector Icons : http://www.onlinewebfonts.com/icon -->
<!DOCTYPE svg PUBLIC "-//W3C//DTD SVG 1.1//EN" "http://www.w3.org/Graphics/SVG/1.1/DTD/svg11.dtd">
<svg version="1.1" xmlns="http://www.w3.org/2000/svg" xmlns:xlink="http://www.w3.org/1999/xlink" x="0px" y="0px" viewBox="0 0 1000 1000" enable-background="new 0 0 1000 1000" xml:space="preserve">
<metadata> Svg Vector Icons : http://www.onlinewebfonts.com/icon </metadata>
<g><path d="M920,80H80c-38.7,0-70,31.3-70,70v700c0,38.7,31.3,70,70,70h840c38.7,0,70-31.3,70-70V150C990,111.3,958.7,80,920,80z M815,150c19.3,0,35,15.7,35,35s-15.7,35-35,35s-35-15.7-35-35S795.7,150,815,150z M675,150c19.3,0,35,15.7,35,35s-15.7,35-35,35s-35-15.7-35-35S655.7,150,675,150z M535,150c19.3,0,35,15.7,35,35s-15.7,35-35,35s-35-15.7-35-35S515.7,150,535,150z M920,815c0,19.3-15.7,35-35,35H115c-19.3,0-35-15.7-35-35V291.1h840V815z"/><path d="M230.3,769.8c13.7,13.7,35.8,13.7,49.5,0L454.5,595c6.9-6.9,10.3-15.9,10.3-24.9c0-9-3.4-18-10.3-24.9L279.8,370.5c-13.7-13.7-35.8-13.7-49.5,0c-13.7,13.7-13.7,35.8,0,49.5l150.1,150.1L230.3,720.3C216.6,733.9,216.6,756.1,230.3,769.8z"/><path d="M430,745c0,19.3,15.7,35,35,35h280c19.3,0,35-15.7,35-35c0-19.3-15.7-35-35-35H465C445.7,710,430,725.7,430,745z"/></g>
</svg>