<?xml version="1.0" encoding="utf-8"?>
<!-- Generator: Adobe Illustrator 19.0.0, SVG Export Plug-In . SVG Version: 6.00 Build 0)  -->
<svg version="1.1" id="Layer_1" xmlns="http://www.w3.org/2000/svg" xmlns:xlink="http://www.w3.org/1999/xlink" x="0px" y="0px"
	 viewBox="-49 141 512 512" style="enable-background:new -49 141 512 512;" xml:space="preserve">
<style type="text/css">
	.st0{fill:#666666;}
</style>
<path class="st0" d="M463,141H243v40h30v136h-46v-30h-40v30h-66c-77.2,0-140,62.8-140,140v156h-30v40h220v-40h-30V477h46v30h40v-30
	h66c77.2,0,140-62.8,140-140V181h30V141z M131,437c-16.5,0-30,13.5-30,30v146H21V457c0-55.1,44.9-100,100-100h66v80H131z M393,337
	c0,55.1-44.9,100-100,100h-66v-80h56c16.5,0,30-13.5,30-30V181h80V337z"/>
<polygon class="st0" points="-3,613 6.5,415.5 86,340.5 189.5,336.5 207,357 207,459 118,465 118,532 121,625.5 -6.5,625.5 "/>
<polygon class="st0" points="219.5,336.5 219.5,444.5 306.5,449 381,412 412,326 416,163 307,160.5 285,188 282.5,295.5 285.5,334 
	"/>
</svg>
