<?xml version="1.0" encoding="utf-8"?>
<!-- Generator: Adobe Illustrator 19.0.0, SVG Export Plug-In . SVG Version: 6.00 Build 0)  -->
<svg version="1.1" id="Layer_1" xmlns="http://www.w3.org/2000/svg" xmlns:xlink="http://www.w3.org/1999/xlink" x="0px" y="0px"
	 viewBox="-49 141 512 512" style="enable-background:new -49 141 512 512;" xml:space="preserve">
<style type="text/css">
	.st0{fill:#999999;}
	.st1{fill:#B3B3B3;}
	.st2{fill:#CCCCCC;}
	.st3{fill:#FFFFFF;}
	.st4{fill:#E6E6E6;}
	.st5{fill:#333333;}
</style>
<path class="st0" d="M95,597.1l-1.2-97.9c0-2.6,47.5,2.2,46.6,0c20.9-7.6,35.9-27.6,35.9-51.1V375c2,0.7,95.8,0,95.8,0V448
	c0,76.6-57.7,140-131.9,149C140.3,597.1,95,599.8,95,597.1z"/>
<path class="st1" d="M118.7,523.6c6.6,0.3,12.8,0.6,17.3,0.6c3.4,0,10,0,16.2-3.4c29.2-12.1,48.6-41,48.6-72.8v-48.3
	c0.4,0,0.8,0,1.2,0c14.1,0,31.6-0.1,45.6-0.1l13,43.2c18.8,63.6-43,145.4-121.3,140c-2.5,0.1-11.7-9.5-20.1-9.2L118.7,523.6z"/>
<path class="st0" d="M272.2,375V448c0,76.6-57.7,140-131.9,149c0,0-45.3,2.7-45.3,0l-0.3-24c20.2-0.2,41.9-0.3,43.3-0.4
	c62.5-8,109.6-61.5,109.6-124.6v-72.9C261.7,375,272.2,375,272.2,375z"/>
<path class="st2" d="M149,597.1l1.2-97.9c0-2.6-47.5,2.2-46.6,0c-20.9-7.6-35.9-27.6-35.9-51.1V375c-2,0.7-95.8,0-95.8,0V448
	c0,76.6,57.7,140,131.9,149C103.8,597.1,149,599.8,149,597.1z"/>
<path class="st1" d="M124.8,573.5c-8.4-0.3-17.6,9.4-20.1,9.2c-78.2,5.4-140.1-76.4-121.3-140l13-43.2c14,0.1,31.5,0.1,45.6,0.1
	c0.4,0,0.8,0,1.2,0V448c0,31.8,19.4,60.6,48.6,72.8c6.2,3.4,12.8,3.4,16.2,3.4c4.5,0,10.7-0.3,17.3-0.6L124.8,573.5z"/>
<path class="st0" d="M-28.1,375V448c0,76.6,57.7,140,131.9,149c0,0,45.3,2.7,45.3,0l0.3-24c-20.2-0.2-41.9-0.3-43.3-0.4
	C43.4,564.7-3.6,511.2-3.6,448v-72.9C-17.6,375-28.1,375-28.1,375z"/>
<path class="st2" d="M414.6,302.6v5.5h-88.2c-29.9,0-54.3,24.4-54.3,54.3v52.4c-2-0.7-93.8-0.7-95.8,0v-52.4
	c0-82.8,67.4-150.1,150.1-150.1h88.2v7.2V302.6z"/>
<path class="st1" d="M200.8,362.4c0-69.3,56.4-125.6,125.7-125.6h88.1v65.8l-82.8-9c-43.5,0-74.6,32.4-74.6,75.8l-9.5,20.5
	c-6.3,0-14,0-23.4,0s-17.1,0-23.4,0L200.8,362.4L200.8,362.4z"/>
<path class="st3" d="M388.9,245.5h-62.5c-4.8,0-8.7-3.9-8.7-8.7s3.9-8.7,8.7-8.7h62.5c4.8,0,8.7,3.9,8.7,8.7
	S393.8,245.5,388.9,245.5z"/>
<path class="st0" d="M326.5,283.6h88.2v24.5h-88.2c-29.9,0-54.3,24.4-54.3,54.3v52.4c-0.7-0.2-10.9-0.4-24.5-0.5v-51.9
	C247.7,319,283,283.6,326.5,283.6z"/>
<g>
	<path class="st4" d="M434.4,199.7c5.5,0,10.4,2.2,14,5.8c3.6,3.6,5.8,8.5,5.8,14v83.1c0,10.9-8.9,19.8-19.8,19.8
		c-5.5,0-10.4-2.2-14-5.8c-3.6-3.6-5.8-8.5-5.8-14v-83.1C414.6,208.6,423.5,199.7,434.4,199.7z"/>
	<path class="st4" d="M122,609.2c-5.5,0-10.4-2.2-14-5.8c-1.8-1.8-3.3-4-4.3-6.4c-1-2.4-1.5-4.9-1.5-7.7v-83.1c0-2.6,0.5-5,1.4-7.2
		h0c2.9-7.4,10-12.6,18.4-12.6c5.5,0,10.4,2.2,14,5.8c1.9,1.9,3.4,4.2,4.4,6.8c0.9,2.2,1.4,4.7,1.4,7.2v83.1c0,2.7-0.5,5.3-1.5,7.7
		C137.3,604.2,130.3,609.2,122,609.2z"/>
	<path class="st4" d="M265.8,373.9c2.2,0,4.4,0.4,6.4,1.1c7.8,2.6,13.4,10,13.4,18.7c0,5.5-2.2,10.4-5.8,14
		c-2.1,2.1-4.7,3.8-7.6,4.7c-2,0.7-4.2,1.1-6.4,1.1h-83.1c-2.2,0-4.4-0.4-6.4-1c-7.8-2.7-13.4-10-13.4-18.8c0-5.5,2.2-10.4,5.8-14
		c2.1-2.1,4.7-3.8,7.6-4.7c2-0.7,4.2-1.1,6.4-1.1L265.8,373.9L265.8,373.9z"/>
	<path class="st4" d="M-28.1,375.4c2.4-1,4.9-1.5,7.7-1.5h83.1c1.8,0,3.5,0.2,5.1,0.7c8.5,2.3,14.7,10,14.7,19.1
		c0,5.5-2.2,10.4-5.8,14c-2.4,2.4-5.5,4.2-8.9,5.1c-1.6,0.4-3.3,0.7-5.1,0.7h-83.1c-2.7,0-5.3-0.5-7.7-1.5
		c-7.1-3-12.1-10.1-12.1-18.3c0-5.5,2.2-10.4,5.8-14C-32.6,377.9-30.5,376.4-28.1,375.4z"/>
	<path class="st4" d="M62.6,184.8c10.9,0,19.8,8.9,19.8,19.8c0,5.5-2.2,10.4-5.8,14c-3.6,3.6-8.5,5.8-14,5.8h0h-83.1
		c-10.9,0-19.8-8.9-19.8-19.8c0-5.5,2.2-10.4,5.8-14c3.6-3.6,8.5-5.8,14-5.8C-20.4,184.8,62.6,184.8,62.6,184.8z"/>
</g>
<g>
	<path class="st2" d="M-5.3,204.6c0-5.5,2.2-10.4,5.8-14c3.6-3.6,8.5-5.8,14-5.8h-35c-5.5,0-10.4,2.2-14,5.8
		c-3.6,3.6-5.8,8.5-5.8,14c0,10.9,8.9,19.8,19.8,19.8h35C3.6,224.4-5.3,215.5-5.3,204.6z"/>
	<path class="st2" d="M-5.3,393.7c0-5.5,2.2-10.4,5.8-14c3.6-3.6,8.5-5.8,14-5.8h-35c-5.5,0-10.4,2.2-14,5.8s-5.8,8.5-5.8,14
		c0,10.9,8.9,19.8,19.8,19.8h35C3.6,413.5-5.3,404.6-5.3,393.7z"/>
	<path class="st2" d="M197.9,393.7c0-5.5,2.2-10.4,5.8-14c3.6-3.6,8.5-5.8,14-5.8h-35c-5.5,0-10.4,2.2-14,5.8
		c-3.6,3.6-5.8,8.5-5.8,14c0,10.9,8.9,19.8,19.8,19.8h35C206.8,413.5,197.9,404.6,197.9,393.7z"/>
	<path class="st2" d="M122,574.2c-5.5,0-10.4-2.2-14-5.8c-3.6-3.6-5.8-8.5-5.8-14v35c0,5.5,2.2,10.4,5.8,14c3.6,3.6,8.5,5.8,14,5.8
		c10.9,0,19.8-8.9,19.8-19.8v-35C141.8,565.4,133,574.2,122,574.2z"/>
	<path class="st2" d="M434.4,287.4c-5.5,0-10.4-2.2-14-5.8c-3.6-3.6-5.8-8.5-5.8-14v35c0,5.5,2.2,10.4,5.8,14
		c3.6,3.6,8.5,5.8,14,5.8c10.9,0,19.8-8.9,19.8-19.8v-35C454.2,278.5,445.4,287.4,434.4,287.4z"/>
	<path class="st2" d="M-28.1,375.4v-151h7.7h83.1h0h5.1v150.2c-1.6-0.4-3.3-0.7-5.1-0.7h-83.1C-23.2,373.9-25.8,374.5-28.1,375.4z"
		/>
</g>
<rect x="-26.7" y="224.7" class="st0" width="27.8" height="149.3"/>
<rect x="-3.6" y="224.7" class="st1" width="46.8" height="149.3"/>
<g>
	<path class="st3" d="M77.7,521.9c-1.7,0-3.4-0.5-4.9-1.5c-24-16.4-38.3-43.4-38.3-72.3v-6.4c0-4.8,3.9-8.7,8.7-8.7s8.7,3.9,8.7,8.7
		v6.4c0,23.1,11.5,44.8,30.6,57.9c4,2.7,5,8.2,2.3,12.2C83.2,520.5,80.5,521.9,77.7,521.9z"/>
	<path class="st3" d="M43.2,351.2c-4.8,0-8.7-3.9-8.7-8.7v-68.2c0-4.8,3.9-8.7,8.7-8.7s8.7,3.9,8.7,8.7v68.2
		C52,347.3,48.1,351.2,43.2,351.2z"/>
	<circle class="st3" cx="43.2" cy="249.2" r="8.7"/>
</g>
<path class="st5" d="M434.4,191c-9.8,0-18.5,5-23.6,12.6h-84.3c-87.6,0-158.9,71.3-158.9,158.9v7.1c-8.1,5.1-13.4,14-13.4,24.2
	c0,10.2,5.4,19.1,13.4,24.2V448c0,16.7-9.3,32-23.7,40c-5.2-6.2-13.1-10.2-21.8-10.2c-8.8,0-16.6,4-21.9,10.2
	c-14.4-7.9-23.7-23.2-23.7-40v-29.4c8.8-4.9,14.7-14.2,14.7-25s-5.9-20.1-14.7-25V229.6c8.8-4.9,14.7-14.2,14.7-25
	c0-15.7-12.8-28.6-28.6-28.6h-83.1c-15.7,0-28.6,12.8-28.6,28.6c0,9.6,4.8,18.2,12.1,23.3v142.4c-7.3,5.2-12.1,13.7-12.1,23.3
	c0,9.6,4.8,18.2,12.1,23.3v31c0,78.7,57.8,145.4,135.1,157.1c5.1,7.7,13.9,12.8,23.8,12.8c9.9,0,18.7-5.1,23.8-12.8
	c77.3-11.7,135.1-78.4,135.1-157.1v-30.1c8-5.1,13.4-14,13.4-24.2c0-10.2-5.4-19.1-13.4-24.2v-7.1c0-25.1,20.4-45.6,45.6-45.6h83.3
	c4.9,8.5,14.2,14.3,24.7,14.3c15.7,0,28.6-12.8,28.6-28.6v-83.1C463,203.8,450.2,191,434.4,191z M265.8,382.7
	c6.1,0,11.1,5,11.1,11.1s-5,11.1-11.1,11.1h-83.1c-6.1,0-11.1-5-11.1-11.1c0-6.1,5-11.1,11.1-11.1H265.8L265.8,382.7z M-20.4,404.8
	c-6.1,0-11.1-5-11.1-11.1c0-6.1,5-11.1,11.1-11.1h83.1c6.1,0,11.1,5,11.1,11.1s-5,11.1-11.1,11.1H-20.4z M59,233.2v132h-78.3v-132
	H59z M-20.4,193.5h83.1c6.1,0,11.1,5,11.1,11.1c0,6.1-4.9,11-10.9,11.1h-83.3c-6-0.1-10.9-5-10.9-11.1
	C-31.5,198.5-26.5,193.5-20.4,193.5z M-19.4,448v-25.8H59V448c0,23.9,13.6,45.6,34.6,56.2c0,0.7-0.1,1.4-0.1,2.1v80.2
	C28.4,573.2-19.4,515.5-19.4,448z M133.1,589.4c0,6.1-5,11.1-11.1,11.1c-6.1,0-11.1-5-11.1-11.1v-83.1c0-6.1,5-11.1,11.1-11.1
	c6.1,0,11.1,5,11.1,11.1V589.4z M150.6,586.5v-80.2c0-0.7,0-1.4-0.1-2.1c21-10.6,34.6-32.4,34.6-56.2v-25.8h78.3V448
	C263.4,515.5,215.7,573.2,150.6,586.5z M263.4,362.4v2.8h-78.3v-2.8c0-78,63.4-141.4,141.4-141.4h79.4v78.3h-79.4
	C291.7,299.4,263.4,327.6,263.4,362.4z M445.5,302.6c0,6.1-5,11.1-11.1,11.1s-11.1-5-11.1-11.1v-83.1c0-6.1,5-11.1,11.1-11.1
	s11.1,5,11.1,11.1V302.6z"/>
</svg>
