<?xml version="1.0" encoding="utf-8"?>
<!-- Generator: Adobe Illustrator 19.0.0, SVG Export Plug-In . SVG Version: 6.00 Build 0)  -->
<svg version="1.1" id="Layer_1" xmlns="http://www.w3.org/2000/svg" xmlns:xlink="http://www.w3.org/1999/xlink" x="0px" y="0px"
	 viewBox="194 -104 1000 1000" style="enable-background:new 194 -104 1000 1000;" xml:space="preserve">
<g>
	<path d="M204,786.2v35c0,38.7,31.3,70,70,70h840c38.7,0,78.5-32.5,70-105L204,786.2z"/>
	<path d="M357.5,315.1c-23.1,23.1-23.1,60.2,0,83.3l294.2,294c11.6,11.6,26.8,17.3,41.9,17.3s30.3-5.7,41.9-17.3l294-294
		c23.1-23.1,23.1-60.2,0-83.3c-23.1-23.1-60.2-23.1-83.3,0L693.6,567.7L440.8,315.1C417.9,292.1,380.6,292.1,357.5,315.1z"/>
</g>
<path d="M265.4,831.5c33.8,0,61.4-12.3,61.4-27.5V584c0-15.2-27.5-46-61.4-46S204,568.8,204,584v220
	C204,819.2,231.5,831.5,265.4,831.5z"/>
<path d="M1123.8,844.5c33.8,0,61.4-12.3,61.4-27.5V597c0-15.2-27.5-46-61.4-46s-61.4,30.8-61.4,46v220
	C1062.4,832.2,1090,844.5,1123.8,844.5z"/>
<path d="M204,791c981.2,0,981.2,0,981.2,0"/>
<path d="M693.5,78.6c-33.8,0-61.4,23.3-61.4,52v415.9c0,28.7,27.5,87,61.4,87s61.4-58.3,61.4-87V130.6
	C754.9,101.9,727.3,78.6,693.5,78.6z"/>
<path d="M693.5-87.9c-33.8,0-61.4,23.3-61.4,52V380c0,28.7,27.5,87,61.4,87s61.4-58.3,61.4-87V-35.9
	C754.9-64.6,727.3-87.9,693.5-87.9z"/>
</svg>
